<?xml version="1.0" standalone="no"?>
<!DOCTYPE svg PUBLIC "-//W3C//DTD SVG 20010904//EN"
 "http://www.w3.org/TR/2001/REC-SVG-20010904/DTD/svg10.dtd">
<svg version="1.0" xmlns="http://www.w3.org/2000/svg"
 width="612.000000pt" height="612.000000pt" viewBox="0 0 612.000000 612.000000"
 preserveAspectRatio="xMidYMid meet">

<g transform="translate(0.000000,612.000000) scale(0.100000,-0.100000)"
fill="#000000" stroke="none">
<path d="M3003 4819 c-52 -12 -116 -69 -151 -134 -40 -74 -69 -85 -219 -85
-110 0 -125 -2 -143 -20 -12 -12 -20 -33 -20 -55 l0 -35 -243 0 c-275 0 -316
-7 -384 -65 -23 -19 -53 -58 -67 -87 l-26 -52 0 -1415 c0 -945 4 -1428 10
-1453 17 -60 69 -119 135 -153 l59 -30 1106 0 1106 0 59 30 c66 34 118 94 135
154 7 27 9 500 8 1463 l-3 1423 -27 47 c-16 25 -45 60 -65 78 -65 53 -109 60
-380 60 l-243 0 0 35 c0 22 -8 43 -20 55 -18 18 -33 20 -142 20 -149 0 -180
12 -218 82 -61 113 -157 162 -267 137z m112 -134 c49 -49 16 -125 -55 -125
-44 0 -80 35 -80 77 0 34 42 73 80 73 19 0 40 -9 55 -25z m-644 -352 c13 -67
-24 -63 583 -63 437 0 556 3 570 13 10 7 21 29 25 47 l7 35 244 0 c227 0 247
-1 279 -20 18 -11 42 -36 52 -55 18 -33 19 -88 19 -1428 0 -1530 4 -1421 -61
-1476 l-31 -26 -1103 2 -1103 3 -27 25 c-59 55 -55 -41 -55 1470 0 1252 2
1395 16 1426 36 76 69 84 349 81 l229 -2 7 -32z"/>
<path d="M2545 3850 l-149 -149 -67 64 c-51 50 -74 65 -96 65 -37 0 -53 -16
-53 -53 0 -24 18 -48 92 -123 77 -79 97 -94 123 -94 27 0 54 24 208 178 185
186 199 208 161 246 -38 38 -62 23 -219 -134z"/>
<path d="M3012 3824 c-26 -18 -30 -65 -6 -88 14 -14 69 -16 458 -16 416 0 444
1 459 18 24 26 21 68 -5 86 -20 14 -80 16 -453 16 -373 0 -433 -2 -453 -16z"/>
<path d="M2548 3243 c-82 -82 -150 -149 -152 -150 -1 -1 -33 27 -70 62 -38 36
-77 65 -88 65 -37 0 -58 -19 -58 -53 0 -29 14 -47 99 -130 54 -53 106 -97 116
-97 11 0 98 79 202 182 193 192 207 213 165 251 -39 35 -59 23 -214 -130z"/>
<path d="M3022 3220 c-25 -10 -42 -46 -34 -70 13 -39 21 -40 478 -40 490 0
478 -2 472 64 -5 55 -11 56 -473 55 -231 0 -430 -4 -443 -9z"/>
<path d="M2555 2630 c-83 -82 -155 -150 -161 -150 -5 0 -39 29 -74 65 -67 67
-95 79 -124 49 -36 -35 -21 -65 83 -167 54 -53 106 -97 116 -97 11 0 98 79
202 182 148 148 183 187 183 210 0 27 -31 58 -59 58 -8 0 -83 -67 -166 -150z"/>
<path d="M3002 2598 c-7 -7 -12 -26 -12 -43 0 -17 5 -36 12 -43 17 -17 909
-17 926 0 7 7 12 26 12 43 0 17 -5 36 -12 43 -17 17 -909 17 -926 0z"/>
<path d="M2555 2020 c-83 -82 -155 -150 -160 -150 -4 0 -39 29 -76 65 -37 36
-73 65 -81 65 -28 0 -58 -31 -58 -59 0 -23 20 -48 97 -125 61 -61 104 -96 118
-96 14 0 81 60 203 182 147 147 182 187 182 210 0 27 -31 58 -59 58 -8 0 -83
-67 -166 -150z"/>
<path d="M3005 1984 c-24 -25 -16 -76 15 -91 19 -10 127 -13 445 -13 462 0
468 1 473 56 6 66 19 64 -473 64 -396 0 -445 -2 -460 -16z"/>
</g>
</svg>
